<svg viewBox="0 0 30 30" fill="none" xmlns="http://www.w3.org/2000/svg">
<path d="M29.8553 2.05092C29.721 1.92009 29.5226 1.8796 29.348 1.94757L0.305439 13.2268C0.132823 13.2938 0.0144048 13.4543 0.00122126 13.6389C-0.0119623 13.8236 0.082432 13.9992 0.243682 14.0901L6.26236 17.4812L8.35128 27.6917C8.36429 27.7639 8.39365 27.8311 8.43578 27.8888C8.43999 27.8946 8.44345 27.899 8.44697 27.9035C8.52056 27.9955 8.62492 28.0598 8.74656 28.0793C8.76208 28.0817 8.77767 28.0835 8.79314 28.0844C8.80316 28.0851 8.81312 28.0854 8.82308 28.0854C8.91443 28.0854 9.00097 28.0593 9.07474 28.0134C9.0997 27.9979 9.12343 27.9801 9.14546 27.9598C9.15232 27.9535 9.15829 27.9478 9.16409 27.9419L13.6947 23.3997C13.8814 23.2125 13.8811 22.9093 13.6939 22.7226C13.5065 22.5358 13.2035 22.5363 13.0168 22.7235L9.45788 26.2915L10.2269 19.706L21.0957 25.6716C21.2051 25.7314 21.3268 25.7442 21.4382 25.7173C21.4505 25.7143 21.4617 25.7112 21.4727 25.7076C21.5828 25.6719 21.6793 25.5976 21.7408 25.491C21.7439 25.4855 21.7466 25.4805 21.7493 25.4755C21.7617 25.4518 21.7717 25.4286 21.7796 25.4051L29.9719 2.55536C30.0351 2.37887 29.9896 2.18165 29.8553 2.05092ZM1.59561 13.7528L25.3338 4.53365L6.67047 16.6121L1.59561 13.7528ZM9.53435 18.5706C9.48958 18.6066 9.45062 18.6511 9.42015 18.7035C9.41616 18.7103 9.41241 18.7172 9.40878 18.7242C9.37972 18.7804 9.36284 18.8398 9.35728 18.8992L8.69324 24.5861L7.22213 17.3956L23.3415 6.96347L9.53435 18.5706ZM21.0648 24.5624L10.6771 18.8608L28.4723 3.90102L21.0648 24.5624Z" fill="white"/>
</svg>
