<svg viewBox="0 0 30 31" fill="none" xmlns="http://www.w3.org/2000/svg">
<path d="M14.5132 12.6034C14.5132 11.0764 13.5968 8.69824 11.8268 8.69824C11.2731 8.69824 10.6758 8.97378 10.3336 9.4C9.97088 9.8452 9.8645 10.418 9.8645 10.9705C9.8645 12.3916 10.6963 14.748 12.5304 14.748C13.0636 14.748 13.6391 14.4929 13.9814 14.1535C14.4709 13.6635 14.5132 12.9848 14.5132 12.6034Z" fill="#E0E0E0"/>
<path d="M30 15.4629C30 7.21814 23.2841 0.53418 15 0.53418C6.71588 0.53418 0 7.21814 0 15.4629C0 23.7076 6.71588 30.3916 15 30.3916C23.2841 30.3916 30 23.7076 30 15.4629ZM19.6159 12.5925H20.7696V14.8888H23.0768V16.037H20.7696V18.3333H19.6159V16.037H17.3086V14.8888H19.6159V12.5925ZM6.92319 21.1344C6.92319 20.3704 7.30637 19.2887 8.565 18.545C9.88637 17.7389 11.6782 17.633 12.6368 17.5692C12.3382 17.1865 11.9973 16.7834 11.9973 16.1266C11.9973 15.7656 12.1036 15.5539 12.21 15.2987C11.9754 15.319 11.7409 15.3408 11.5268 15.3408C9.26725 15.3408 7.98819 13.6633 7.98819 12.0089C7.98819 11.0332 8.43549 9.95015 9.35319 9.16571C10.5696 8.16821 12.0191 7.99854 13.17 7.99854H17.5623L16.1973 8.76127H14.8759C15.3654 9.16434 16.3896 10.0139 16.3896 11.6262C16.3896 13.1965 15.4937 13.9388 14.5991 14.6391C14.3223 14.9146 14.0019 15.2118 14.0019 15.6787C14.0019 16.1456 14.3223 16.4007 14.5555 16.5907L15.3232 17.1851C16.2614 17.9695 17.1137 18.6916 17.1137 20.1573C17.1137 22.151 15.1732 24.1677 11.5064 24.1677C8.41637 24.1691 6.92319 22.7047 6.92319 21.1344Z" fill="#E0E0E0"/>
<path d="M13.3623 18.1844C13.1919 18.1641 13.0855 18.1641 12.8727 18.1641C12.6805 18.1641 11.5296 18.2061 10.6337 18.5047C10.1646 18.6743 8.79956 19.1832 8.79956 20.6895C8.79956 22.1958 10.2709 23.2773 12.5523 23.2773C14.5991 23.2773 15.6859 22.3016 15.6859 20.9867C15.6859 19.9038 14.9837 19.3311 13.3623 18.1844Z" fill="#E0E0E0"/>
</svg>
