<svg viewBox="0 0 30 31" fill="none" xmlns="http://www.w3.org/2000/svg">
<path d="M14.9999 0.53418C23.2847 0.53418 30 7.21851 30 15.4629C30 23.7074 23.2847 30.3916 14.9999 30.3916C6.71522 30.3916 0 23.7073 0 15.4629C0 7.21861 6.71532 0.53418 14.9999 0.53418Z" fill="#E0E0E0"/>
<path d="M14.638 12.6641C15.1123 12.6641 15.4837 12.5138 15.7555 12.3003C16.0256 12.0856 16.1606 11.7937 16.1606 11.4186V9.155C16.1606 8.82191 16.0228 8.54663 15.748 8.33489C15.4714 8.12304 15.118 8.01769 14.6849 8.01769C14.2115 8.01769 13.8327 8.11751 13.5524 8.31808C13.2711 8.51957 13.1305 8.78829 13.1305 9.12886V11.3998C13.1305 11.773 13.2673 12.0678 13.5411 12.289C13.8148 12.5102 14.1815 12.6641 14.638 12.6641ZM14.1422 9.23904C14.1422 9.15315 14.1872 9.08418 14.2762 9.02914C14.3662 8.97595 14.4825 8.94981 14.625 8.94981C14.7806 8.94981 14.9063 8.97595 15.001 9.02914C15.0967 9.08418 15.1435 9.15325 15.1435 9.23904V11.3906C15.1435 11.497 15.0967 11.5809 15.0029 11.6416C14.9092 11.7013 14.7835 11.7321 14.625 11.7321C14.4704 11.7321 14.3504 11.7032 14.2669 11.6425C14.1844 11.5837 14.1422 11.4997 14.1422 11.3906V9.23904ZM17.7768 12.6613C17.9437 12.6613 18.1134 12.5661 18.2897 12.471C18.4678 12.3739 18.6374 12.2321 18.8007 12.0474V12.5503H19.6866V8.01113H18.8007V11.4568C18.7182 11.5548 18.6263 11.6359 18.5279 11.7003C18.4276 11.7637 18.3451 11.7964 18.2804 11.7964C18.197 11.7964 18.136 11.7731 18.1004 11.7237C18.0629 11.6761 18.0423 11.5986 18.0423 11.4922V8.01205H17.1582V11.8048C17.1582 12.0754 17.2117 12.2779 17.3138 12.4123C17.4177 12.5475 17.5715 12.6613 17.7768 12.6613ZM20.3531 14.5377H9.64676C7.9443 14.5377 6.56519 15.8579 6.56519 17.4842V19.9754C6.56519 21.6026 7.9443 22.9229 9.64676 22.9229H20.353C22.0545 22.9229 23.4346 21.6026 23.4346 19.9754V17.4842C23.4347 15.8578 22.0546 14.5377 20.3531 14.5377ZM11.2396 17.0662H10.2928V20.9681H9.37685V17.0662H8.42995V16.4009H11.2397C11.2396 16.4009 11.2396 17.0662 11.2396 17.0662ZM14.0652 21.0222H13.0781V20.6173C12.8943 20.7666 12.7059 20.8813 12.5071 20.9578C12.3112 21.0381 12.1199 21.0763 11.9344 21.0763C11.7056 21.0763 11.535 21.0213 11.4187 20.9103C11.3043 20.8011 11.2453 20.637 11.2453 20.4176V17.3368H12.2325V20.1629C12.2325 20.2507 12.2531 20.3123 12.2925 20.3514C12.3357 20.3915 12.4041 20.4092 12.496 20.4092C12.5673 20.4092 12.661 20.384 12.7716 20.3317C12.8831 20.2804 12.9854 20.2151 13.0782 20.1339V17.3358H14.0653C14.0652 17.3358 14.0652 21.0222 14.0652 21.0222ZM17.8021 20.3206C17.8021 20.5622 17.7251 20.746 17.5724 20.8758C17.4215 21.0054 17.1984 21.0688 16.9106 21.0688C16.7184 21.0688 16.5478 21.0446 16.3996 20.9952C16.2506 20.9458 16.1099 20.8692 15.9824 20.7637V21.025H14.9971V16.4009H15.9824V17.891C16.1156 17.7884 16.2552 17.7081 16.4005 17.654C16.5495 17.599 16.6996 17.5729 16.8505 17.5729C17.159 17.5729 17.3943 17.6447 17.5565 17.7893C17.7205 17.9349 17.8021 18.1485 17.8021 18.4275C17.8021 18.4274 17.8021 20.3206 17.8021 20.3206ZM21.5578 19.2802H19.739V19.9464C19.739 20.1321 19.769 20.2608 19.8318 20.3336C19.8956 20.4054 20.0034 20.4409 20.1543 20.4409C20.3138 20.4409 20.4225 20.4101 20.4862 20.3495C20.5481 20.2879 20.5819 20.1544 20.5819 19.9455V19.785H21.5597V19.966C21.5597 20.328 21.4425 20.6005 21.2006 20.7842C20.9625 20.9671 20.6062 21.0585 20.1328 21.0585C19.7063 21.0585 19.3707 20.9614 19.126 20.7674C18.8822 20.5753 18.7584 20.3065 18.7584 19.9669V18.3788C18.7584 18.0737 18.8935 17.8218 19.1635 17.6287C19.4326 17.4366 19.7775 17.3404 20.2041 17.3404C20.6391 17.3404 20.9738 17.43 21.2081 17.6082C21.4416 17.7865 21.5579 18.0439 21.5579 18.378C21.5578 18.378 21.5578 19.2802 21.5578 19.2802ZM10.709 12.6744H11.8275V9.96209L13.1297 6.13672H11.9924L11.3005 8.75109H11.2293L10.5037 6.13672H9.37582L10.7089 10.0844C10.709 10.0844 10.709 12.6744 10.709 12.6744ZM16.3902 18.1139L16.183 18.1475L15.9815 18.2511V20.3765C16.0603 20.4316 16.138 20.4736 16.2131 20.4969L16.4484 20.5332C16.5684 20.5332 16.6556 20.5099 16.7118 20.4605C16.7671 20.4129 16.7962 20.3345 16.7962 20.2272V18.4647C16.7962 18.3481 16.7633 18.2613 16.694 18.2026C16.6227 18.1438 16.5224 18.1139 16.3902 18.1139Z" fill="#212121"/>
<path d="M20.2069 17.96C20.055 17.96 19.9472 17.9917 19.8807 18.0569C19.8151 18.1193 19.7832 18.2255 19.7832 18.3736V18.7295H20.624V18.3736C20.624 18.2255 20.5893 18.1202 20.5237 18.0569C20.459 17.9917 20.3513 17.96 20.2069 17.96Z" fill="#212121"/>
</svg>
